<svg width="19" height="21" viewBox="0 0 19 21" fill="none" xmlns="http://www.w3.org/2000/svg">
<g clip-path="url(#clip0_1_16101)">
<path d="M12.3329 3.36598C13.0996 2.46008 13.6218 1.24251 13.4852 0C12.3593 0.0519442 10.9867 0.700208 10.1958 1.60819C9.4819 2.3832 8.84957 3.65272 9.01482 4.84328C10.2773 4.94509 11.5375 4.24696 12.3329 3.36598Z" fill="white"/>
<path d="M13.4702 5.07316C11.6371 4.97135 10.0794 6.05387 9.20247 6.05387C8.32558 6.05387 6.98381 5.12718 5.53628 5.15004C3.6481 5.17497 1.89873 6.18269 0.940314 7.78257C-1.03159 10.9844 0.420349 15.7321 2.33717 18.3397C3.26694 19.63 4.39059 21.0491 5.86236 20.9993C7.25921 20.9473 7.80562 20.1453 9.49991 20.1453C11.1942 20.1453 11.6877 20.9993 13.1661 20.9764C14.6996 20.9494 15.6558 19.6861 16.5877 18.3937C17.6519 16.9206 18.0904 15.5036 18.1168 15.4246C18.0904 15.3997 15.1667 14.34 15.1358 11.1652C15.1094 8.50564 17.436 7.24443 17.544 7.16548C16.2308 5.33288 14.1774 5.12718 13.468 5.07524" fill="white"/>
</g>
<defs>
<clipPath id="clip0_1_16101">
<rect width="18.1173" height="21" fill="white"/>
</clipPath>
</defs>
</svg>
