<svg width="24" height="24" viewBox="0 0 24 24" fill="none" xmlns="http://www.w3.org/2000/svg">
<g clip-path="url(#clip0_1_16191)">
<g clip-path="url(#clip1_1_16191)">
<mask id="mask0_1_16191" style="mask-type:luminance" maskUnits="userSpaceOnUse" x="2" y="2" width="20" height="20">
<path d="M22 2H2V22H22V2Z" fill="white"/>
</mask>
<g mask="url(#mask0_1_16191)">
<path d="M11.2188 4.33965V2.77715C11.2188 1.74434 12.7812 1.74277 12.7812 2.77715V4.33965C12.7812 5.37246 11.2188 5.37402 11.2188 4.33965Z" fill="#DBFF00"/>
</g>
<path d="M6.63513 5.83114L5.85388 4.47802C5.33721 3.58322 6.68982 2.80093 7.207 3.69677L7.98825 5.04989C8.50232 5.94052 7.14763 6.71864 6.63513 5.83114Z" fill="#DBFF00"/>
<path d="M16.0103 5.04941L16.7915 3.69628C17.3077 2.80201 18.6618 3.5817 18.1446 4.47753L17.3634 5.83066C16.8467 6.72545 15.4931 5.94472 16.0103 5.04941Z" fill="#DBFF00"/>
<path d="M18.875 12.6211C18.875 13.0529 18.525 13.4023 18.0938 13.4023C17.6625 13.4023 17.3125 13.0529 17.3125 12.6211C17.3125 12.1893 17.662 11.8398 18.0938 11.8398C18.5255 11.8398 18.875 12.1898 18.875 12.6211Z" fill="#DBFF00"/>
<path d="M18.0938 21.9961H5.90625C3.7526 21.9961 2 20.244 2 18.0898V12.6211C2 10.4674 3.75208 8.71484 5.90625 8.71484H8.09375L8.56146 8.09089C9.00208 7.50339 9.70365 7.15234 10.4375 7.15234H13.5625C14.2964 7.15234 14.9974 7.50339 15.4385 8.09089L15.9062 8.71484H18.0938C20.2479 8.71484 22 10.4674 22 12.6211V18.0898C22 20.244 20.2479 21.9961 18.0938 21.9961ZM5.90625 10.2773C4.61406 10.2773 3.5625 11.3289 3.5625 12.6211V18.0898C3.5625 19.382 4.61406 20.4336 5.90625 20.4336H18.0938C19.3859 20.4336 20.4375 19.382 20.4375 18.0898V12.6211C20.4375 11.3289 19.3859 10.2773 18.0938 10.2773H15.5156C15.2698 10.2773 15.038 10.1617 14.8906 9.96484L14.2771 9.14661C14.2771 9.14661 14.276 9.14505 14.2755 9.14453L14.1885 9.02839C14.0391 8.82943 13.8109 8.71484 13.5625 8.71484H10.4375C10.1891 8.71484 9.96094 8.82943 9.81146 9.02839L9.10938 9.96484C8.96198 10.1617 8.73021 10.2773 8.48438 10.2773H5.90625Z" fill="#DBFF00"/>
<path d="M12 18.8711C9.84583 18.8711 8.09375 17.119 8.09375 14.9648C8.09375 12.8107 9.84583 11.0586 12 11.0586C14.1542 11.0586 15.9062 12.8112 15.9062 14.9648C15.9062 17.1185 14.1536 18.8711 12 18.8711ZM12 12.6211C10.7078 12.6211 9.65625 13.6727 9.65625 14.9648C9.65625 16.257 10.7078 17.3086 12 17.3086C13.2922 17.3086 14.3438 16.257 14.3438 14.9648C14.3438 13.6727 13.2922 12.6211 12 12.6211Z" fill="#DBFF00"/>
</g>
</g>
<defs>
<clipPath id="clip0_1_16191">
<rect width="24" height="24" fill="white"/>
</clipPath>
<clipPath id="clip1_1_16191">
<rect width="20" height="20" fill="white" transform="translate(2 2)"/>
</clipPath>
</defs>
</svg>
