<svg width="16" height="17" viewBox="0 0 16 17" fill="none" xmlns="http://www.w3.org/2000/svg">
<path d="M0 2.5C0 1.39543 0.895431 0.5 2 0.5H14C15.1046 0.5 16 1.39543 16 2.5V14.5C16 15.6046 15.1046 16.5 14 16.5H2C0.895431 16.5 0 15.6046 0 14.5V2.5Z" fill="#DBFF00"/>
<path d="M7.10497 12.1041L7.08735 12.1217L2.6875 7.72185L4.12018 6.28917L7.10502 9.27402L11.879 4.5L13.3117 5.93268L7.12264 12.1218L7.10497 12.1041Z" fill="#242426"/>
<path d="M7.10497 12.1041L7.08735 12.1217L2.6875 7.72185L4.12018 6.28917L7.10502 9.27402L11.879 4.5L13.3117 5.93268L7.12264 12.1218L7.10497 12.1041Z" fill="black" fill-opacity="0.2"/>
</svg>
