<svg width="16" height="16" viewBox="0 0 16 16" fill="none" xmlns="http://www.w3.org/2000/svg">
<g clip-path="url(#clip0_1_9843)">
<g clip-path="url(#clip1_1_9843)">
<g clip-path="url(#clip2_1_9843)">
<path fill-rule="evenodd" clip-rule="evenodd" d="M3.52703 3.5265C3.78703 3.2665 4.20703 3.2665 4.46703 3.5265L7.9937 7.05317L11.5204 3.5265C11.7737 3.25984 12.2004 3.25317 12.4604 3.51317C12.727 3.7665 12.7337 4.19317 12.4737 4.45317L12.4604 4.4665L8.9337 7.99317L12.4604 11.5198C12.7137 11.7865 12.707 12.2065 12.447 12.4598C12.187 12.7065 11.7804 12.7065 11.5204 12.4598L7.9937 8.93317L4.46703 12.4598C4.20036 12.7132 3.78036 12.7065 3.52703 12.4465C3.28036 12.1865 3.28036 11.7798 3.52703 11.5198L7.0537 7.99317L3.52703 4.4665C3.26703 4.2065 3.26703 3.7865 3.52703 3.5265Z" fill="white"/>
</g>
</g>
</g>
<defs>
<clipPath id="clip0_1_9843">
<rect width="16" height="16" fill="white"/>
</clipPath>
<clipPath id="clip1_1_9843">
<rect width="16" height="16" fill="white"/>
</clipPath>
<clipPath id="clip2_1_9843">
<rect width="16" height="16" fill="white"/>
</clipPath>
</defs>
</svg>
