<svg width="24" height="24" viewBox="0 0 24 24" fill="none" xmlns="http://www.w3.org/2000/svg">
<g clip-path="url(#clip0_1_9907)">
<g clip-path="url(#clip1_1_9907)">
<path d="M20.1831 5.12695H3.81691C3.36307 5.12695 3 5.47362 3 5.90695C3 6.34029 3.36307 6.68695 3.81691 6.68695H4.63382V18.0936C4.63382 20.247 6.47013 22.0003 8.72537 22.0003H15.2676C17.5229 22.0003 19.3592 20.247 19.3592 18.0936V6.68695H20.1761C20.6299 6.68695 20.993 6.34029 20.993 5.90695C20.993 5.47362 20.6299 5.12695 20.1761 5.12695H20.1831ZM17.7254 18.0936C17.7254 19.387 16.6222 20.4403 15.2676 20.4403H8.72537C7.37083 20.4403 6.26765 19.387 6.26765 18.0936V6.68695H17.7254V18.0936Z" fill="#FF0089"/>
<path d="M13.6345 3.56H10.3599C9.90604 3.56 9.54297 3.21333 9.54297 2.78C9.54297 2.34667 9.90604 2 10.3599 2H13.6345C14.0884 2 14.4514 2.34667 14.4514 2.78C14.4514 3.21333 14.0884 3.56 13.6345 3.56Z" fill="#FF0089"/>
<path d="M12.0005 17.3135C11.5467 17.3135 11.1836 16.9668 11.1836 16.5335V10.5935C11.1836 10.1601 11.5467 9.81348 12.0005 9.81348C12.4543 9.81348 12.8174 10.1601 12.8174 10.5935V16.5335C12.8174 16.9668 12.4543 17.3135 12.0005 17.3135Z" fill="#FF0089"/>
<path d="M15.2739 17.3135C14.8201 17.3135 14.457 16.9668 14.457 16.5335V10.5935C14.457 10.1601 14.8201 9.81348 15.2739 9.81348C15.7278 9.81348 16.0909 10.1601 16.0909 10.5935V16.5335C16.0909 16.9668 15.7278 17.3135 15.2739 17.3135Z" fill="#FF0089"/>
<path d="M8.72707 17.3135C8.27323 17.3135 7.91016 16.9668 7.91016 16.5335V10.5935C7.91016 10.1601 8.27323 9.81348 8.72707 9.81348C9.18091 9.81348 9.54398 10.1601 9.54398 10.5935V16.5335C9.54398 16.9668 9.18091 17.3135 8.72707 17.3135Z" fill="#FF0089"/>
</g>
</g>
<defs>
<clipPath id="clip0_1_9907">
<rect width="24" height="24" fill="white"/>
</clipPath>
<clipPath id="clip1_1_9907">
<rect width="18" height="20" fill="white" transform="translate(3 2)"/>
</clipPath>
</defs>
</svg>
