<svg width="24" height="24" viewBox="0 0 24 24" fill="none" xmlns="http://www.w3.org/2000/svg">
<g clip-path="url(#clip0_1_9679)">
<g clip-path="url(#clip1_1_9679)">
<path d="M15.1688 11.5013L13.0575 9.39379C12.7837 9.12004 12.3375 9.12004 12.0638 9.39379C11.79 9.66754 11.79 10.1138 12.0638 10.3875L12.9713 11.295H3.705C3.315 11.295 3 11.61 3 12C3 12.39 3.315 12.7013 3.705 12.7013H12.975L12.0675 13.6088C11.7937 13.8825 11.7937 14.3288 12.0675 14.6025C12.2063 14.7413 12.3863 14.8088 12.5662 14.8088C12.7463 14.8088 12.9263 14.7413 13.065 14.6025L15.1763 12.4913C15.45 12.2175 15.45 11.7713 15.1763 11.4975L15.1688 11.5013Z" fill="#FF0089"/>
<path d="M17.4823 21H11.8573C9.91859 21 8.33984 19.4212 8.33984 17.4825V14.8125C8.33984 14.4225 8.65484 14.1112 9.04484 14.1112C9.43484 14.1112 9.74984 14.4262 9.74984 14.8125V17.4825C9.74984 18.645 10.6948 19.59 11.8573 19.59H17.4823C18.6448 19.59 19.5898 18.645 19.5898 17.4825V6.5175C19.5898 5.355 18.6448 4.41 17.4823 4.41H11.8573C10.6948 4.41 9.74984 5.355 9.74984 6.5175V9.1875C9.74984 9.5775 9.43484 9.8925 9.04484 9.8925C8.65484 9.8925 8.33984 9.5775 8.33984 9.1875V6.5175C8.34359 4.57875 9.92234 3 11.8573 3H17.4823C19.4211 3 20.9998 4.57875 20.9998 6.5175V17.4862C20.9998 19.425 19.4211 21.0037 17.4823 21.0037V21Z" fill="#FF0089"/>
</g>
</g>
<defs>
<clipPath id="clip0_1_9679">
<rect width="24" height="24" fill="white"/>
</clipPath>
<clipPath id="clip1_1_9679">
<rect width="18" height="18" fill="white" transform="translate(3 3)"/>
</clipPath>
</defs>
</svg>
