<svg width="24" height="24" viewBox="0 0 24 24" fill="none" xmlns="http://www.w3.org/2000/svg">
<g clip-path="url(#clip0_1_3180)">
<g clip-path="url(#clip1_1_3180)">
<mask id="mask0_1_3180" style="mask-type:luminance" maskUnits="userSpaceOnUse" x="5" y="2" width="14" height="20">
<path d="M19 2H5V22H19V2Z" fill="white"/>
</mask>
<g mask="url(#mask0_1_3180)">
<path d="M13.4656 13.6573L11.9993 12.8828L10.5324 13.6573C9.96251 13.9578 9.29518 13.4708 9.40355 12.8338L9.68355 11.1932L8.49666 10.0312C8.03622 9.5802 8.29081 8.79166 8.92807 8.69843L10.5681 8.45936L11.3013 6.96666C11.586 6.38697 12.4115 6.38697 12.6961 6.96666L13.4293 8.45936L15.0689 8.69843C15.7056 8.79114 15.9607 9.57968 15.4998 10.0312L14.3134 11.1932L14.5934 12.8338C14.7028 13.4734 14.0324 13.9573 13.4646 13.6573H13.4656ZM10.7118 10.0177L11.0628 10.3609C11.2464 10.5406 11.3298 10.7989 11.2863 11.0526L11.2038 11.538L11.6373 11.3088C11.8639 11.1891 12.1346 11.1891 12.3612 11.3088L12.7947 11.538L12.7117 11.0526C12.6687 10.7989 12.7521 10.5406 12.9357 10.3609L13.2867 10.0172L12.8019 9.94634C12.5484 9.90937 12.3295 9.74947 12.2165 9.51926L11.9998 9.07759L11.783 9.51926C11.67 9.74999 11.4507 9.90989 11.1976 9.94634L10.7128 10.0172L10.7118 10.0177Z" fill="white"/>
<path d="M15.1111 21.4031L12.518 19.0734C12.2235 18.8089 11.7765 18.8083 11.482 19.0734L8.88889 21.4031C8.46059 21.788 7.90837 21.9995 7.33333 21.9995C6.04689 21.9995 5 20.9479 5 19.6557V5.90625C5 3.75208 6.74481 2 8.88889 2H15.1111C17.2557 2 19 3.75208 19 5.90625V19.6562C19 21.6734 16.607 22.7469 15.1111 21.4036V21.4031ZM13.555 17.9089L16.1487 20.2385C16.6454 20.6849 17.4444 20.3307 17.4444 19.6557V5.90625C17.4444 4.61406 16.3976 3.5625 15.1111 3.5625H8.88889C7.60244 3.5625 6.55556 4.61406 6.55556 5.90625V19.6562C6.55556 20.087 6.90452 20.4375 7.33333 20.4375C7.85237 20.4375 7.83941 20.1651 10.445 17.9089C11.329 17.1141 12.6694 17.113 13.555 17.9089Z" fill="white"/>
</g>
</g>
</g>
<defs>
<clipPath id="clip0_1_3180">
<rect width="24" height="24" fill="white"/>
</clipPath>
<clipPath id="clip1_1_3180">
<rect width="14" height="20" fill="white" transform="translate(5 2)"/>
</clipPath>
</defs>
</svg>
