<svg width="24" height="24" viewBox="0 0 24 24" fill="none" xmlns="http://www.w3.org/2000/svg">
<g clip-path="url(#clip0_1_16185)">
<path d="M5.91 22H18.1C20.25 22 22.01 20.25 22.01 18.09V8.76C22.01 7.72 21.6 6.74 20.87 6L18.01 3.14C17.27 2.4 16.29 2 15.25 2H5.91C3.75 2 2 3.75 2 5.91V18.1C2 20.25 3.75 22.01 5.91 22.01V22ZM8.09 3.56H11.06V5.59C11.06 6.02 11.41 6.37 11.84 6.37C12.27 6.37 12.62 6.02 12.62 5.59V3.56H14.18V6.37C14.18 7.23 13.48 7.93 12.62 7.93H9.65C8.79 7.93 8.09 7.23 8.09 6.37V3.56ZM3.56 5.91C3.56 4.62 4.61 3.57 5.9 3.57H6.52V6.38C6.52 8.1 7.92 9.5 9.64 9.5H12.61C14.33 9.5 15.73 8.1 15.73 6.38V3.62C16.16 3.72 16.55 3.93 16.87 4.25L19.73 7.11C20.17 7.55 20.42 8.14 20.42 8.77V18.1C20.42 19.39 19.37 20.44 18.08 20.44H5.91C4.62 20.44 3.57 19.39 3.57 18.1V5.91H3.56Z" fill="#DBFF00"/>
<path d="M5.90891 18.8705C6.33891 18.8705 6.68891 18.5205 6.68891 18.0905V14.1805C6.68891 13.3205 7.38891 12.6205 8.24891 12.6205H15.7489C16.6089 12.6205 17.3089 13.3205 17.3089 14.1805V18.0905C17.3089 18.5205 17.6589 18.8705 18.0889 18.8705C18.5189 18.8705 18.8689 18.5205 18.8689 18.0905V14.1805C18.8689 12.4605 17.4689 11.0605 15.7489 11.0605H8.24891C6.52891 11.0605 5.12891 12.4605 5.12891 14.1805V18.0905C5.12891 18.5205 5.47891 18.8705 5.90891 18.8705Z" fill="#DBFF00"/>
<path d="M14.97 14.1895H9.03C8.6 14.1895 8.25 14.5395 8.25 14.9695C8.25 15.3995 8.6 15.7495 9.03 15.7495H14.97C15.4 15.7495 15.75 15.3995 15.75 14.9695C15.75 14.5395 15.4 14.1895 14.97 14.1895Z" fill="#DBFF00"/>
<path d="M15.75 18.0905C15.75 17.6605 15.4 17.3105 14.97 17.3105H9.03C8.6 17.3105 8.25 17.6605 8.25 18.0905C8.25 18.5205 8.6 18.8705 9.03 18.8705H14.97C15.4 18.8705 15.75 18.5205 15.75 18.0905Z" fill="#DBFF00"/>
</g>
<defs>
<clipPath id="clip0_1_16185">
<rect width="20" height="20" fill="white" transform="translate(2 2)"/>
</clipPath>
</defs>
</svg>
