<svg width="28" height="28" viewBox="0 0 28 28" fill="none" xmlns="http://www.w3.org/2000/svg">
<g clip-path="url(#clip0_577_31504)">
<mask id="mask0_577_31504" style="mask-type:luminance" maskUnits="userSpaceOnUse" x="0" y="0" width="28" height="28">
<path d="M27.3346 0.666992H0.667969V27.3337H27.3346V0.666992Z" fill="white"/>
</mask>
<g mask="url(#mask0_577_31504)">
<path d="M12.9609 3.78783V1.70449C12.9609 0.327409 15.0443 0.325326 15.0443 1.70449V3.78783C15.0443 5.16491 12.9609 5.16699 12.9609 3.78783Z" fill="#AEAEB2"/>
</g>
<path d="M6.84814 5.77518L5.80647 3.97101C5.11758 2.77796 6.92106 1.7349 7.61064 2.92935L8.65231 4.73351C9.33772 5.92101 7.53147 6.95851 6.84814 5.77518Z" fill="#AEAEB2"/>
<path d="M19.3496 4.73385L20.3913 2.92968C21.0795 1.73732 22.885 2.7769 22.1955 3.97135L21.1538 5.77551C20.4649 6.96857 18.66 5.9276 19.3496 4.73385Z" fill="#AEAEB2"/>
<path d="M23.1693 14.8298C23.1693 15.4054 22.7026 15.8714 22.1276 15.8714C21.5526 15.8714 21.0859 15.4054 21.0859 14.8298C21.0859 14.2541 21.5519 13.7881 22.1276 13.7881C22.7033 13.7881 23.1693 14.2548 23.1693 14.8298Z" fill="#AEAEB2"/>
<path d="M22.1263 27.3298H5.8763C3.00477 27.3298 0.667969 24.9936 0.667969 22.1214V14.8298C0.667969 11.9582 3.00408 9.62142 5.8763 9.62142H8.79297L9.41658 8.78947C10.0041 8.00614 10.9395 7.53809 11.918 7.53809H16.0846C17.0631 7.53809 17.9978 8.00614 18.586 8.78947L19.2096 9.62142H22.1263C24.9985 9.62142 27.3346 11.9582 27.3346 14.8298V22.1214C27.3346 24.9936 24.9985 27.3298 22.1263 27.3298ZM5.8763 11.7048C4.15339 11.7048 2.7513 13.1068 2.7513 14.8298V22.1214C2.7513 23.8443 4.15339 25.2464 5.8763 25.2464H22.1263C23.8492 25.2464 25.2513 23.8443 25.2513 22.1214V14.8298C25.2513 13.1068 23.8492 11.7048 22.1263 11.7048H18.6888C18.361 11.7048 18.052 11.5506 17.8555 11.2881L17.0374 10.1971C17.0374 10.1971 17.036 10.195 17.0353 10.1943L16.9194 10.0395C16.7201 9.7742 16.4159 9.62142 16.0846 9.62142H11.918C11.5867 9.62142 11.2826 9.7742 11.0832 10.0395L10.1471 11.2881C9.95061 11.5506 9.64158 11.7048 9.3138 11.7048H5.8763Z" fill="#AEAEB2"/>
<path d="M14.0013 23.1628C11.1291 23.1628 8.79297 20.8266 8.79297 17.9544C8.79297 15.0822 11.1291 12.7461 14.0013 12.7461C16.8735 12.7461 19.2096 15.0829 19.2096 17.9544C19.2096 20.826 16.8728 23.1628 14.0013 23.1628ZM14.0013 14.8294C12.2784 14.8294 10.8763 16.2315 10.8763 17.9544C10.8763 19.6773 12.2784 21.0794 14.0013 21.0794C15.7242 21.0794 17.1263 19.6773 17.1263 17.9544C17.1263 16.2315 15.7242 14.8294 14.0013 14.8294Z" fill="#AEAEB2"/>
</g>
<defs>
<clipPath id="clip0_577_31504">
<rect width="26.6667" height="26.6667" fill="white" transform="translate(0.667969 0.666992)"/>
</clipPath>
</defs>
</svg>
