<svg width="21" height="21" viewBox="0 0 21 21" fill="none" xmlns="http://www.w3.org/2000/svg">
<g clip-path="url(#clip0_1_16107)">
<path fill-rule="evenodd" clip-rule="evenodd" d="M20.1284 10.7299C20.1284 10.0077 20.0626 9.31531 19.9423 8.64844H10.2695V12.5844H15.7962C15.5585 13.8557 14.8338 14.934 13.7468 15.6548V18.2074H17.0665C19.0085 16.4366 20.1284 13.8273 20.1284 10.7285V10.7299Z" fill="#4377BC"/>
<path fill-rule="evenodd" clip-rule="evenodd" d="M10.271 20.6744C13.0436 20.6744 15.3694 19.7635 17.0679 18.2098L13.7482 15.6573C12.8288 16.2674 11.6516 16.6292 10.271 16.6292C7.59571 16.6292 5.33148 14.8386 4.52375 12.4336H1.09375V15.0699C2.78369 18.3957 6.25665 20.6758 10.2724 20.6758L10.271 20.6744Z" fill="#36A052"/>
<path fill-rule="evenodd" clip-rule="evenodd" d="M4.52416 12.4338C4.31936 11.8237 4.20193 11.171 4.20193 10.4999C4.20193 9.82875 4.31793 9.17749 4.52416 8.56595V5.92969H1.09273C0.396705 7.30457 0 8.85824 0 10.4999C0 12.1415 0.396705 13.6952 1.09273 15.0701L4.52416 12.4338Z" fill="#EFB619"/>
<path fill-rule="evenodd" clip-rule="evenodd" d="M10.271 4.37084C11.779 4.37084 13.1324 4.88447 14.1965 5.89187L17.1424 2.97325C15.3651 1.33304 13.0393 0.324219 10.271 0.324219C6.25665 0.324219 2.78369 2.60435 1.09375 5.93018L4.52518 8.56645C5.33291 6.16146 7.59714 4.37084 10.2724 4.37084H10.271Z" fill="#DA4234"/>
</g>
<defs>
<clipPath id="clip0_1_16107">
<rect width="20.1303" height="20.3509" fill="white" transform="translate(0 0.324219)"/>
</clipPath>
</defs>
</svg>
