<svg width="24" height="24" viewBox="0 0 24 24" fill="none" xmlns="http://www.w3.org/2000/svg">
<g clip-path="url(#clip0_802_29370)">
<path fill-rule="evenodd" clip-rule="evenodd" d="M19.7098 5.71C20.0898 5.31 20.0798 4.68 19.6898 4.3C19.2998 3.93 18.6898 3.93 18.2998 4.3L14.0398 8.56C12.1398 7.44 9.68984 8.07 8.55984 9.97C7.81984 11.22 7.81984 12.78 8.55984 14.04L4.29984 18.3C3.89984 18.68 3.88984 19.32 4.27984 19.71C4.65984 20.11 5.29984 20.12 5.68984 19.73L5.70984 19.71L9.96984 15.45C11.8698 16.57 14.3198 15.94 15.4498 14.04C16.1898 12.79 16.1898 11.23 15.4498 9.97L19.7098 5.71ZM12.5198 10.07C11.4498 9.78 10.3598 10.42 10.0698 11.48C9.97984 11.82 9.97984 12.18 10.0698 12.52L12.5198 10.07ZM11.4798 13.93L13.9298 11.48C14.2198 12.55 13.5798 13.64 12.5198 13.93C12.1798 14.02 11.8198 14.02 11.4798 13.93ZM15.7598 4.82C14.6198 4.32 13.3598 4 11.9898 4C9.13984 4 6.74984 5.39 4.98984 6.91C3.22984 8.43 1.99984 10.14 1.45984 10.97C1.04984 11.6 1.04984 12.4 1.45984 13.03C2.24984 14.24 3.17984 15.36 4.20984 16.37L5.61984 14.96C4.69984 14.06 3.87984 13.07 3.16984 12C3.67984 11.23 4.76984 9.73 6.28984 8.42C7.85984 7.07 9.79984 6 11.9898 6C12.7398 6 13.4898 6.13 14.2098 6.37L15.7598 4.82ZM11.9898 18C11.2398 18 10.4898 17.87 9.76984 17.63L8.22984 19.18C9.36984 19.68 10.6298 20 11.9998 20C14.8498 20 17.2398 18.6 18.9998 17.09C20.7598 15.57 21.9898 13.86 22.5298 13.03C22.9398 12.4 22.9398 11.6 22.5298 10.97C21.7398 9.76 20.8098 8.64 19.7798 7.63L18.3598 9.04C19.2798 9.94 20.0998 10.93 20.8098 12C20.2998 12.77 19.2098 14.27 17.6898 15.58C16.1198 16.93 14.1798 18 11.9898 18Z" fill="white"/>
</g>
<defs>
<clipPath id="clip0_802_29370">
<rect width="24" height="24" fill="white"/>
</clipPath>
</defs>
</svg>
