<svg width="16" height="16" viewBox="0 0 16 16" fill="none" xmlns="http://www.w3.org/2000/svg">
<g clip-path="url(#clip0_1_3702)">
<g clip-path="url(#clip1_1_3702)">
<path d="M13.4554 3.41772H2.54461C2.24205 3.41772 2 3.64884 2 3.93772C2 4.22661 2.24205 4.45772 2.54461 4.45772H3.08922V12.0622C3.08922 13.4977 4.31342 14.6666 5.81691 14.6666H10.1784C11.6819 14.6666 12.9061 13.4977 12.9061 12.0622V4.45772H13.4507C13.7533 4.45772 13.9953 4.22661 13.9953 3.93772C13.9953 3.64884 13.7533 3.41772 13.4507 3.41772H13.4554ZM11.8169 12.0622C11.8169 12.9244 11.0815 13.6266 10.1784 13.6266H5.81691C4.91389 13.6266 4.17843 12.9244 4.17843 12.0622V4.45772H11.8169V12.0622Z" fill="white"/>
<path d="M9.09098 2.37325H6.90789C6.60533 2.37325 6.36328 2.14214 6.36328 1.85325C6.36328 1.56436 6.60533 1.33325 6.90789 1.33325H9.09098C9.39354 1.33325 9.63559 1.56436 9.63559 1.85325C9.63559 2.14214 9.39354 2.37325 9.09098 2.37325Z" fill="white"/>
<path d="M8.00164 11.5422C7.69908 11.5422 7.45703 11.3111 7.45703 11.0222V7.06224C7.45703 6.77335 7.69908 6.54224 8.00164 6.54224C8.3042 6.54224 8.54625 6.77335 8.54625 7.06224V11.0222C8.54625 11.3111 8.3042 11.5422 8.00164 11.5422Z" fill="white"/>
<path d="M10.1813 11.5422C9.87877 11.5422 9.63672 11.3111 9.63672 11.0222V7.06224C9.63672 6.77335 9.87877 6.54224 10.1813 6.54224C10.4839 6.54224 10.7259 6.77335 10.7259 7.06224V11.0222C10.7259 11.3111 10.4839 11.5422 10.1813 11.5422Z" fill="white"/>
<path d="M5.81805 11.5422C5.51549 11.5422 5.27344 11.3111 5.27344 11.0222V7.06224C5.27344 6.77335 5.51549 6.54224 5.81805 6.54224C6.12061 6.54224 6.36265 6.77335 6.36265 7.06224V11.0222C6.36265 11.3111 6.12061 11.5422 5.81805 11.5422Z" fill="white"/>
</g>
</g>
<defs>
<clipPath id="clip0_1_3702">
<rect width="16" height="16" fill="white"/>
</clipPath>
<clipPath id="clip1_1_3702">
<rect width="12" height="13.3333" fill="white" transform="translate(2 1.33325)"/>
</clipPath>
</defs>
</svg>
