<svg width="16" height="17" viewBox="0 0 16 17" fill="none" xmlns="http://www.w3.org/2000/svg">
<g clip-path="url(#clip0_1146_30920)">
<g clip-path="url(#clip1_1146_30920)">
<path d="M13.4008 15.0932C13.2551 15.0932 13.1166 15.0349 13.0146 14.9182L2.20224 2.72269C2.01281 2.51116 2.02738 2.18294 2.24596 1.99329C2.45725 1.80365 2.78512 1.83283 2.97455 2.03706L13.7869 14.2325C13.9764 14.4441 13.9545 14.7723 13.7432 14.9619C13.6412 15.0495 13.5246 15.0932 13.4008 15.0932Z" fill="white"/>
<path d="M7.0843 4.34258C7.48503 4.204 7.4996 3.76636 7.28831 3.52566C7.28831 3.51837 7.28831 3.50378 7.28831 3.49649C7.28831 3.10991 7.60161 2.79627 7.98776 2.79627C8.37392 2.79627 8.68722 3.10991 8.68722 3.49649C8.68722 3.50378 8.68722 3.51837 8.68722 3.52566C8.48321 3.77366 8.49778 4.204 8.89122 4.34258C10.108 4.77293 10.924 5.93266 10.924 7.22369V9.76928C10.924 9.83492 10.9386 9.89328 10.9459 9.95163L12.0971 11.2499C12.2063 11.2791 12.3229 11.2937 12.4468 11.2937C12.6144 11.3083 12.7382 11.3739 12.8184 11.4542C12.9058 11.549 12.9568 11.6657 12.9568 11.8043C12.9568 11.921 12.9131 12.0158 12.8475 12.096L13.5397 12.8692C13.8093 12.592 13.9768 12.2127 13.9768 11.797C13.9768 11.6949 13.9695 11.5928 13.9477 11.4979C13.9477 11.4761 13.9331 11.4542 13.9258 11.4323C13.904 11.3594 13.8894 11.2791 13.8603 11.2062C13.8603 11.1916 13.8457 11.177 13.8384 11.1624C13.802 11.0895 13.7655 11.0165 13.7218 10.9509C13.7145 10.9363 13.7 10.9217 13.6854 10.9071C13.6417 10.8488 13.598 10.7831 13.5397 10.7321C13.5032 10.6956 13.4595 10.6664 13.4231 10.63C13.394 10.6008 13.3648 10.5716 13.3284 10.5497C13.0807 10.3747 12.7819 10.2726 12.4541 10.2726C12.1699 10.2726 11.944 10.0464 11.944 9.76198V7.2164C11.944 5.64091 11.026 4.21859 9.62711 3.55484C9.62711 3.53295 9.64168 3.51107 9.64168 3.48919C9.64168 2.57015 8.89851 1.82617 7.98048 1.82617C7.06244 1.82617 6.31927 2.57015 6.31927 3.48919C6.31927 3.51107 6.32656 3.53295 6.33385 3.55484C6.09341 3.67154 5.86754 3.81742 5.65625 3.97789L6.32656 4.72916C6.55242 4.5687 6.80015 4.43011 7.06973 4.33529L7.0843 4.34258Z" fill="white"/>
<path d="M7.99583 12.2775C6.82279 12.2702 5.37288 12.2775 3.5951 12.3139C3.46395 12.2993 3.36195 12.2775 3.28181 12.241C3.1288 12.1535 3.01951 11.993 3.01951 11.8034C3.01951 11.6648 3.0778 11.5481 3.15794 11.4532C3.24538 11.373 3.36195 11.3074 3.52953 11.2928C4.36742 11.2928 5.04501 10.6071 5.04501 9.76834V7.22276C5.04501 7.1644 5.0523 7.10605 5.05958 7.0477L4.19255 6.07031C4.08326 6.43501 4.02497 6.82159 4.02497 7.21546V9.76105C4.02497 10.0382 3.79911 10.2716 3.51496 10.2716C3.18709 10.2716 2.88836 10.3737 2.64064 10.5488C2.60421 10.5707 2.57507 10.5999 2.54592 10.629C2.50949 10.6655 2.46578 10.6947 2.42935 10.7311C2.37834 10.7822 2.32734 10.8478 2.28363 10.9062C2.26905 10.9208 2.26177 10.9354 2.2472 10.95C2.20348 11.0156 2.16705 11.0885 2.13062 11.1615C2.12334 11.1761 2.11605 11.1907 2.10876 11.2053C2.07962 11.2782 2.05776 11.3511 2.04319 11.4314C2.04319 11.4532 2.02862 11.4751 2.02133 11.497C1.99947 11.5991 1.99219 11.6939 1.99219 11.7961C1.99219 12.6349 2.67707 13.3205 3.51496 13.3205H10.6261L9.68618 12.2629C9.06687 12.2629 8.49856 12.2629 7.98855 12.2629L7.99583 12.2775Z" fill="white"/>
<path d="M8.50662 14.1455H7.48658C7.20243 14.1455 6.97656 14.3716 6.97656 14.6561C6.97656 14.9405 7.20243 15.1667 7.48658 15.1667H8.50662C8.79077 15.1667 9.01664 14.9405 9.01664 14.6561C9.01664 14.3716 8.79077 14.1455 8.50662 14.1455Z" fill="white"/>
<path d="M12.1121 11.2495L10.9609 9.95117C11.0411 10.5857 11.5001 11.1036 12.1121 11.2495Z" fill="white"/>
</g>
</g>
<defs>
<clipPath id="clip0_1146_30920">
<rect width="16" height="16" fill="white" transform="translate(0 0.5)"/>
</clipPath>
<clipPath id="clip1_1146_30920">
<rect width="12" height="13.3333" fill="white" transform="translate(2 1.83301)"/>
</clipPath>
</defs>
</svg>
