<svg width="24" height="24" viewBox="0 0 24 24" fill="none" xmlns="http://www.w3.org/2000/svg">
<g clip-path="url(#clip0_1_16197)">
<g clip-path="url(#clip1_1_16197)">
<path d="M18.0949 21H5.90512C3.74974 21 2 19.164 2 16.9104V7.0896C2 4.836 3.75318 3 5.90512 3H18.0914C20.2468 3 21.9966 4.836 21.9966 7.0896V16.9068C21.9966 19.164 20.2434 20.9964 18.0914 20.9964L18.0949 21ZM5.90512 4.638C4.61258 4.638 3.56067 5.7396 3.56067 7.0932V16.9104C3.56067 18.264 4.61258 19.3656 5.90512 19.3656H18.0914C19.384 19.3656 20.4359 18.264 20.4359 16.9104V7.0896C20.4359 5.736 19.384 4.6344 18.0914 4.6344H5.90512V4.638Z" fill="#DBFF00"/>
<path d="M8.8757 11.1819C7.58316 11.1819 6.53125 10.0803 6.53125 8.72668C6.53125 7.37308 7.58316 6.27148 8.8757 6.27148C10.1682 6.27148 11.2201 7.37308 11.2201 8.72668C11.2201 10.0803 10.1682 11.1819 8.8757 11.1819ZM8.8757 7.90948C8.446 7.90948 8.09536 8.27668 8.09536 8.72668C8.09536 9.17668 8.446 9.54388 8.8757 9.54388C9.3054 9.54388 9.65604 9.17668 9.65604 8.72668C9.65604 8.27668 9.3054 7.90948 8.8757 7.90948Z" fill="#DBFF00"/>
<path d="M17.6985 17.486L13.5631 13.1552L10.9918 15.848C10.6858 16.1684 10.1908 16.1684 9.8883 15.848L8.87764 14.7896L6.461 17.4824C5.73223 18.2456 4.62532 17.09 5.35753 16.3268L8.32762 13.0544C8.63357 12.734 9.12858 12.734 9.43109 13.0544L10.4418 14.1128L13.0131 11.42C13.319 11.0996 13.814 11.0996 14.1166 11.42L18.8054 16.3304C19.5445 17.1044 18.4204 18.242 17.702 17.486H17.6985Z" fill="#DBFF00"/>
</g>
</g>
<defs>
<clipPath id="clip0_1_16197">
<rect width="24" height="24" fill="white"/>
</clipPath>
<clipPath id="clip1_1_16197">
<rect width="20" height="18" fill="white" transform="translate(2 3)"/>
</clipPath>
</defs>
</svg>
