<svg width="84" height="96" viewBox="0 0 84 96" fill="none" xmlns="http://www.w3.org/2000/svg">
<rect width="84" height="96" rx="16" fill="#3A3A3A"/>
<g clip-path="url(#clip0_640_28608)">
<path d="M46.9284 47.1441H42.8569V43.0727C42.8569 42.9548 42.7605 42.8584 42.6426 42.8584H41.3569C41.2391 42.8584 41.1426 42.9548 41.1426 43.0727V47.1441H37.0712C36.9534 47.1441 36.8569 47.2405 36.8569 47.3584V48.6441C36.8569 48.762 36.9534 48.8584 37.0712 48.8584H41.1426V52.9298C41.1426 53.0477 41.2391 53.1441 41.3569 53.1441H42.6426C42.7605 53.1441 42.8569 53.0477 42.8569 52.9298V48.8584H46.9284C47.0462 48.8584 47.1427 48.762 47.1427 48.6441V47.3584C47.1427 47.2405 47.0462 47.1441 46.9284 47.1441Z" fill="white"/>
<path d="M42 36C35.3732 36 30 41.3732 30 48C30 54.6268 35.3732 60 42 60C48.6268 60 54 54.6268 54 48C54 41.3732 48.6268 36 42 36ZM42 57.9643C36.4982 57.9643 32.0357 53.5018 32.0357 48C32.0357 42.4982 36.4982 38.0357 42 38.0357C47.5018 38.0357 51.9643 42.4982 51.9643 48C51.9643 53.5018 47.5018 57.9643 42 57.9643Z" fill="white"/>
</g>
<defs>
<clipPath id="clip0_640_28608">
<rect width="24" height="24" fill="white" transform="translate(30 36)"/>
</clipPath>
</defs>
</svg>
