<svg width="25" height="24" viewBox="0 0 25 24" fill="none" xmlns="http://www.w3.org/2000/svg">
<g clip-path="url(#clip0_867_788)">
<g clip-path="url(#clip1_867_788)">
<path d="M7.96923 22C7.67692 22 7.4 21.8308 7.26923 21.5693L6.43077 19.8924C6.25385 19.5385 5.85385 18.9077 5.16923 18.677C3.56923 18.1462 2.5 16.6539 2.5 14.9693V8.72312C2.5 6.56158 4.25385 4.81543 6.40769 4.81543H9.53077C11.6846 4.81543 13.4385 6.56928 13.4385 8.72312V14.9693C13.4385 16.6539 12.3615 18.1462 10.7692 18.677C10.0923 18.9 9.69231 19.5308 9.50769 19.8924L8.66923 21.5693C8.53846 21.8308 8.26923 22 7.96923 22ZM6.40769 6.37697C5.11538 6.37697 4.06154 7.43081 4.06154 8.72312V14.9693C4.06154 15.977 4.70769 16.877 5.66154 17.1924C6.56154 17.4924 7.33077 18.2 7.82308 19.1924L7.96154 19.477L8.1 19.1924C8.59231 18.2077 9.36154 17.4924 10.2615 17.1924C11.2231 16.877 11.8615 15.977 11.8615 14.9693V8.72312C11.8615 7.43081 10.8077 6.37697 9.51538 6.37697H6.39231H6.40769Z" fill="#DBFF00"/>
<path d="M17.03 19.1845C16.7377 19.1845 16.4608 19.0153 16.33 18.7537L15.0224 16.146C14.83 15.7614 14.9839 15.2922 15.3685 15.0999C15.7531 14.9076 16.2224 15.0614 16.4147 15.446L17.0224 16.6614L17.1608 16.3768C17.6531 15.3922 18.4224 14.6768 19.3224 14.3768C20.2839 14.0614 20.9224 13.1614 20.9224 12.1537V5.90757C20.9224 4.61526 19.8685 3.56142 18.5762 3.56142H15.4531C14.8224 3.56142 14.2377 3.80757 13.7916 4.25373C13.4839 4.56142 12.9916 4.56142 12.6839 4.25373C12.3762 3.94603 12.3762 3.45373 12.6839 3.14603C13.4224 2.40757 14.407 1.99219 15.4531 1.99219H18.5762C20.73 1.99219 22.4839 3.74603 22.4839 5.89988V12.146C22.4839 13.8306 21.407 15.323 19.8147 15.8537C19.1377 16.0768 18.7377 16.7076 18.5531 17.0691L17.7147 18.746C17.5839 19.0076 17.3147 19.1768 17.0147 19.1768L17.03 19.1845Z" fill="#DBFF00"/>
<path d="M9.53269 11.0614H6.40962C5.97885 11.0614 5.625 10.7153 5.625 10.2768C5.625 9.83834 5.97115 9.49219 6.40962 9.49219H9.53269C9.96346 9.49219 10.3173 9.83834 10.3173 10.2768C10.3173 10.7153 9.97115 11.0614 9.53269 11.0614Z" fill="#DBFF00"/>
<path d="M9.53269 14.1845H6.40962C5.97885 14.1845 5.625 13.8383 5.625 13.3998C5.625 12.9614 5.97115 12.6152 6.40962 12.6152H9.53269C9.96346 12.6152 10.3173 12.9614 10.3173 13.3998C10.3173 13.8383 9.97115 14.1845 9.53269 14.1845Z" fill="#DBFF00"/>
<path d="M18.5913 8.24599H15.4682C15.0374 8.24599 14.6836 7.89983 14.6836 7.46137C14.6836 7.02291 15.0297 6.67676 15.4682 6.67676H18.5913C19.0221 6.67676 19.3759 7.02291 19.3759 7.46137C19.3759 7.89983 19.0297 8.24599 18.5913 8.24599Z" fill="#DBFF00"/>
<path d="M18.5913 11.3768H15.4682C15.0374 11.3768 14.6836 11.0307 14.6836 10.5922C14.6836 10.1538 15.0297 9.80762 15.4682 9.80762H18.5913C19.0221 9.80762 19.3759 10.1538 19.3759 10.5922C19.3759 11.0307 19.0297 11.3768 18.5913 11.3768Z" fill="#DBFF00"/>
</g>
</g>
<defs>
<clipPath id="clip0_867_788">
<rect width="24" height="24" fill="white" transform="translate(0.5)"/>
</clipPath>
<clipPath id="clip1_867_788">
<rect width="20" height="20" fill="white" transform="translate(2.5 2)"/>
</clipPath>
</defs>
</svg>
