<svg width="24" height="24" viewBox="0 0 24 24" fill="none" xmlns="http://www.w3.org/2000/svg">
<g clip-path="url(#clip0_1_9670)">
<g clip-path="url(#clip1_1_9670)">
<path d="M17.1858 14.6691H18.694C20.082 14.7019 21 15.7632 21 16.9558C21 18.214 19.9727 19.2424 18.7158 19.2424H5.28415C4.02732 19.2424 3 18.214 3 16.9558C3 15.6976 4.02732 14.6691 5.28415 14.6691C5.69945 14.6691 6.04918 14.3299 6.04918 13.9032V10.0849C6.04918 7.5028 7.68853 5.18333 10.1148 4.319C11.0765 3.99077 11.5683 5.42403 10.6175 5.7632C8.79235 6.40871 7.56831 8.14832 7.56831 10.0849V13.9032C7.56831 15.1614 6.54098 16.1899 5.28415 16.1899C4.86885 16.1899 4.51913 16.5291 4.51913 16.9558C4.51913 18.3781 6.1694 17.4153 18.7049 17.7216C19.1202 17.7216 19.4699 17.3825 19.4699 16.9558C19.4699 16.5619 19.2186 16.2446 18.694 16.1899" fill="white"/>
<path d="M5.29508 16.1899C4.77049 16.2446 4.51913 16.5619 4.51913 16.9558C4.51913 17.3496 4.85792 17.7216 5.28415 17.7216C17.8197 17.4153 19.4699 18.389 19.4699 16.9558C19.4699 16.54 19.1311 16.1899 18.7049 16.1899C17.4481 16.1899 16.4208 15.1614 16.4208 13.9032V10.0849C16.4208 8.14832 15.1967 6.40871 13.3716 5.7632C12.4208 5.42403 12.9235 3.99077 13.8743 4.319C16.3115 5.18333 17.9399 7.49186 17.9399 10.0849V13.9032C17.9399 14.319 18.2787 14.6691 18.7049 14.6691C19.9618 14.6691 20.9891 15.6976 20.9891 16.9558C20.9891 18.214 19.9618 19.2424 18.7049 19.2424H5.28415C4.02732 19.2424 3 18.214 3 16.9558C3 15.7523 3.91803 14.7019 5.30601 14.6691H6.81421" fill="white"/>
<path d="M12.7599 22.0005H11.2299C10.8036 22.0005 10.4648 21.6613 10.4648 21.2346C10.4648 20.8079 10.8036 20.4688 11.2299 20.4688H12.7599C13.1862 20.4688 13.525 20.8079 13.525 21.2346C13.525 21.6613 13.1862 22.0005 12.7599 22.0005Z" fill="white"/>
<path d="M13.7662 5.21663C13.3728 5.21663 13.0449 4.8884 13.0449 4.49453C13.0449 3.91466 12.5749 3.4442 11.9957 3.4442C11.4165 3.4442 10.9465 3.91466 10.9465 4.49453C10.9465 4.8884 10.6187 5.21663 10.2252 5.21663C9.83178 5.21663 9.50391 4.8884 9.50391 4.49453C9.50391 3.11597 10.6187 2 11.9957 2C13.3728 2 14.4875 3.11597 14.4875 4.49453C14.4875 4.8884 14.1596 5.21663 13.7662 5.21663Z" fill="white"/>
</g>
</g>
<defs>
<clipPath id="clip0_1_9670">
<rect width="24" height="24" fill="white"/>
</clipPath>
<clipPath id="clip1_1_9670">
<rect width="18" height="20" fill="white" transform="translate(3 2)"/>
</clipPath>
</defs>
</svg>
