<svg width="24" height="24" viewBox="0 0 24 24" fill="none" xmlns="http://www.w3.org/2000/svg">
<g clip-path="url(#clip0_1_16203)">
<g clip-path="url(#clip1_1_16203)">
<path d="M17.1858 14.6701H18.694C20.082 14.7029 21 15.7642 21 16.9567C21 18.2149 19.9727 19.2434 18.7158 19.2434H5.28415C4.02732 19.2434 3 18.2149 3 16.9567C3 15.6985 4.02732 14.6701 5.28415 14.6701C5.69945 14.6701 6.04918 14.3309 6.04918 13.9042V10.0858C6.04918 7.50378 7.68853 5.18431 10.1148 4.31997C11.0765 3.99175 11.5683 5.42501 10.6175 5.76418C8.79235 6.40969 7.56831 8.1493 7.56831 10.0858V13.9042C7.56831 15.1624 6.54098 16.1909 5.28415 16.1909C4.86885 16.1909 4.51913 16.53 4.51913 16.9567C4.51913 18.3791 6.1694 17.4163 18.7049 17.7226C19.1202 17.7226 19.4699 17.3834 19.4699 16.9567C19.4699 16.5629 19.2186 16.2456 18.694 16.1909" fill="#DBFF00"/>
<path d="M5.29508 16.1909C4.77049 16.2456 4.51913 16.5629 4.51913 16.9567C4.51913 17.3506 4.85792 17.7226 5.28415 17.7226C17.8197 17.4163 19.4699 18.39 19.4699 16.9567C19.4699 16.541 19.1311 16.1909 18.7049 16.1909C17.4481 16.1909 16.4208 15.1624 16.4208 13.9042V10.0858C16.4208 8.1493 15.1967 6.40969 13.3716 5.76418C12.4208 5.42501 12.9235 3.99175 13.8743 4.31997C16.3115 5.18431 17.9399 7.49284 17.9399 10.0858V13.9042C17.9399 14.32 18.2787 14.6701 18.7049 14.6701C19.9618 14.6701 20.9891 15.6985 20.9891 16.9567C20.9891 18.2149 19.9618 19.2434 18.7049 19.2434H5.28415C4.02732 19.2434 3 18.2149 3 16.9567C3 15.7532 3.91803 14.7029 5.30601 14.6701H6.81421" fill="#DBFF00"/>
<path d="M12.7599 22.0005H11.2299C10.8036 22.0005 10.4648 21.6613 10.4648 21.2346C10.4648 20.8079 10.8036 20.4688 11.2299 20.4688H12.7599C13.1862 20.4688 13.525 20.8079 13.525 21.2346C13.525 21.6613 13.1862 22.0005 12.7599 22.0005Z" fill="#DBFF00"/>
<path d="M13.7662 5.21663C13.3728 5.21663 13.0449 4.8884 13.0449 4.49453C13.0449 3.91466 12.5749 3.4442 11.9957 3.4442C11.4165 3.4442 10.9465 3.91466 10.9465 4.49453C10.9465 4.8884 10.6187 5.21663 10.2252 5.21663C9.83178 5.21663 9.50391 4.8884 9.50391 4.49453C9.50391 3.11597 10.6187 2 11.9957 2C13.3728 2 14.4875 3.11597 14.4875 4.49453C14.4875 4.8884 14.1596 5.21663 13.7662 5.21663Z" fill="#DBFF00"/>
</g>
</g>
<defs>
<clipPath id="clip0_1_16203">
<rect width="24" height="24" fill="white"/>
</clipPath>
<clipPath id="clip1_1_16203">
<rect width="18" height="20" fill="white" transform="translate(3 2)"/>
</clipPath>
</defs>
</svg>
