<svg width="24" height="24" viewBox="0 0 24 24" fill="none" xmlns="http://www.w3.org/2000/svg">
<g clip-path="url(#clip0_1_9610)">
<g clip-path="url(#clip1_1_9610)">
<path d="M20.1051 21.8903C19.8865 21.8903 19.6789 21.8028 19.5258 21.6277L3.30727 3.33452C3.02311 3.01723 3.04497 2.52489 3.37284 2.24043C3.68978 1.95596 4.18158 1.99973 4.46574 2.30607L20.6843 20.5993C20.9685 20.9166 20.9357 21.4089 20.6187 21.6934C20.4657 21.8247 20.2909 21.8903 20.1051 21.8903Z" fill="white"/>
<path d="M10.6304 5.76387C11.2315 5.556 11.2533 4.89954 10.9364 4.53849C10.9364 4.52755 10.9364 4.50567 10.9364 4.49473C10.9364 3.91486 11.4063 3.4444 11.9855 3.4444C12.5648 3.4444 13.0347 3.91486 13.0347 4.49473C13.0347 4.50567 13.0347 4.52755 13.0347 4.53849C12.7287 4.91048 12.7506 5.556 13.3407 5.76387C15.1659 6.40939 16.3899 8.14899 16.3899 10.0855V13.9039C16.3899 14.0024 16.4118 14.0899 16.4227 14.1774L18.1495 16.1249C18.3134 16.1687 18.4883 16.1906 18.6741 16.1906C18.9254 16.2125 19.1112 16.3109 19.2315 16.4313C19.3626 16.5735 19.4391 16.7486 19.4391 16.9564C19.4391 17.1315 19.3735 17.2737 19.2752 17.3941L20.3134 18.5538C20.7178 18.1381 20.9692 17.5691 20.9692 16.9455C20.9692 16.7923 20.9582 16.6391 20.9254 16.4969C20.9254 16.4641 20.9036 16.4313 20.8927 16.3984C20.8599 16.289 20.838 16.1687 20.7943 16.0593C20.7943 16.0374 20.7724 16.0155 20.7615 15.9936C20.7069 15.8842 20.6522 15.7748 20.5866 15.6763C20.5757 15.6545 20.5539 15.6326 20.532 15.6107C20.4664 15.5232 20.4008 15.4247 20.3134 15.3481C20.2588 15.2934 20.1932 15.2497 20.1386 15.1949C20.0948 15.1512 20.0511 15.1074 19.9965 15.0746C19.6249 14.812 19.1768 14.6588 18.685 14.6588C18.2588 14.6588 17.92 14.3197 17.92 13.893V10.0746C17.92 7.71136 16.5429 5.57788 14.4446 4.58226C14.4446 4.54943 14.4664 4.51661 14.4664 4.48379C14.4664 3.10523 13.3517 1.98926 11.9746 1.98926C10.5976 1.98926 9.48282 3.10523 9.48282 4.48379C9.48282 4.51661 9.49375 4.54943 9.50467 4.58226C9.14402 4.75731 8.80522 4.97613 8.48828 5.21683L9.49375 6.34374C9.83254 6.10304 10.2041 5.89517 10.6085 5.75293L10.6304 5.76387Z" fill="white"/>
<path d="M11.9937 17.6672C10.2342 17.6562 8.05932 17.6672 5.39265 17.7219C5.19593 17.7 5.04293 17.6672 4.92271 17.6125C4.6932 17.4812 4.52926 17.2405 4.52926 16.956C4.52926 16.7481 4.6167 16.5731 4.73692 16.4308C4.86806 16.3105 5.04293 16.212 5.29429 16.1901C6.55112 16.1901 7.56752 15.1617 7.56752 13.9035V10.0851C7.56752 9.99758 7.57845 9.91006 7.58937 9.82253L6.28883 8.35645C6.12489 8.90349 6.03746 9.48336 6.03746 10.0742V13.8925C6.03746 14.3083 5.69866 14.6584 5.27243 14.6584C4.78063 14.6584 4.33254 14.8116 3.96096 15.0742C3.90631 15.107 3.8626 15.1508 3.81888 15.1945C3.76424 15.2492 3.69866 15.293 3.64402 15.3477C3.56752 15.4243 3.49101 15.5227 3.42544 15.6103C3.40358 15.6322 3.39265 15.654 3.37079 15.6759C3.30522 15.7744 3.25058 15.8838 3.19593 15.9932C3.185 16.0151 3.17407 16.037 3.16314 16.0589C3.11943 16.1683 3.08664 16.2777 3.06478 16.398C3.06478 16.4308 3.04293 16.4637 3.032 16.4965C2.99921 16.6497 2.98828 16.7919 2.98828 16.9451C2.98828 18.2033 4.0156 19.2317 5.27243 19.2317H15.9391L14.5293 17.6453C13.6003 17.6453 12.7478 17.6453 11.9828 17.6453L11.9937 17.6672Z" fill="white"/>
<path d="M12.7599 20.4688H11.2299C10.8036 20.4688 10.4648 20.8079 10.4648 21.2346C10.4648 21.6613 10.8036 22.0005 11.2299 22.0005H12.7599C13.1862 22.0005 13.525 21.6613 13.525 21.2346C13.525 20.8079 13.1862 20.4688 12.7599 20.4688Z" fill="white"/>
<path d="M18.1682 16.1242L16.4414 14.1768C16.5616 15.1286 17.2501 15.9054 18.1682 16.1242Z" fill="white"/>
</g>
</g>
<defs>
<clipPath id="clip0_1_9610">
<rect width="24" height="24" fill="white"/>
</clipPath>
<clipPath id="clip1_1_9610">
<rect width="18" height="20" fill="white" transform="translate(3 2)"/>
</clipPath>
</defs>
</svg>
