<svg width="10" height="10" viewBox="0 0 10 10" fill="none" xmlns="http://www.w3.org/2000/svg">
<rect width="10" height="10" rx="5" fill="#DBFF00"/>
<g clip-path="url(#clip0_706_5606)">
<path d="M7.97469 5.51468C7.93219 5.35307 7.86071 5.2992 7.7564 5.35121C6.59735 6.78713 3.56258 6.42304 3.27089 5.50354C3.23805 5.39951 3.33077 5.31035 3.46986 5.24719C4.43573 5.17288 6.11635 4.29982 7.61345 4.43542C7.69652 4.41127 7.74867 4.32583 7.76799 4.17908C7.71004 3.32273 7.56709 2.9958 7.25801 2.62614C6.76155 2.13202 6.05646 1.9314 5.14275 2.02056C4.01461 2.07629 1.69845 2.84533 2.03264 5.86391C2.18525 7.24038 3.17816 8.04471 4.57675 7.99827C6.25543 7.94254 7.62311 7.58589 7.87617 6.6961C8.01525 6.2057 8.01719 5.75059 7.97469 5.51468ZM6.55292 2.93449C6.76928 3.90044 5.83431 4.05462 5.83431 4.05462C5.83431 4.05462 6.33464 1.97041 6.55292 2.93449ZM5.24706 4.20323C5.24706 4.20323 4.11699 4.80694 3.48917 3.60508C2.86136 2.40137 5.24706 4.20323 5.24706 4.20323Z" fill="#242426"/>
<path d="M7.97469 5.51468C7.93219 5.35307 7.86071 5.2992 7.7564 5.35121C6.59735 6.78713 3.56258 6.42304 3.27089 5.50354C3.23805 5.39951 3.33077 5.31035 3.46986 5.24719C4.43573 5.17288 6.11635 4.29982 7.61345 4.43542C7.69652 4.41127 7.74867 4.32583 7.76799 4.17908C7.71004 3.32273 7.56709 2.9958 7.25801 2.62614C6.76155 2.13202 6.05646 1.9314 5.14275 2.02056C4.01461 2.07629 1.69845 2.84533 2.03264 5.86391C2.18525 7.24038 3.17816 8.04471 4.57675 7.99827C6.25543 7.94254 7.62311 7.58589 7.87617 6.6961C8.01525 6.2057 8.01719 5.75059 7.97469 5.51468ZM6.55292 2.93449C6.76928 3.90044 5.83431 4.05462 5.83431 4.05462C5.83431 4.05462 6.33464 1.97041 6.55292 2.93449ZM5.24706 4.20323C5.24706 4.20323 4.11699 4.80694 3.48917 3.60508C2.86136 2.40137 5.24706 4.20323 5.24706 4.20323Z" fill="black" fill-opacity="0.2"/>
</g>
<defs>
<clipPath id="clip0_706_5606">
<rect width="6" height="6" fill="white" transform="translate(2 2)"/>
</clipPath>
</defs>
</svg>
