<svg width="24" height="24" viewBox="0 0 24 24" fill="none" xmlns="http://www.w3.org/2000/svg">
<g clip-path="url(#clip0_1_9899)">
<g clip-path="url(#clip1_1_9899)">
<path d="M6.68971 13.5646C6.68971 13.994 6.34265 14.3469 5.90735 14.3469C5.47206 14.3469 5.125 13.9999 5.125 13.5646C5.125 13.1293 5.47206 12.7822 5.90735 12.7822C6.34265 12.7822 6.68971 13.1293 6.68971 13.5646Z" fill="white"/>
<path d="M9.65846 13.5646C9.65846 13.994 9.3114 14.3469 8.8761 14.3469C8.44081 14.3469 8.09375 13.9999 8.09375 13.5646C8.09375 13.1293 8.44081 12.7822 8.8761 12.7822C9.3114 12.7822 9.65846 13.1293 9.65846 13.5646Z" fill="white"/>
<path d="M12.6233 13.5646C12.6233 13.994 12.2762 14.3469 11.8409 14.3469C11.4057 14.3469 11.0586 13.9999 11.0586 13.5646C11.0586 13.1293 11.4057 12.7822 11.8409 12.7822C12.2762 12.7822 12.6233 13.1293 12.6233 13.5646Z" fill="white"/>
<path d="M4.34118 22C3.35294 22 2.50588 21.3882 2.16471 20.5177C2.05882 20.3824 2 20.2177 2 20.0353V12.153C2 10 3.75294 8.24707 5.90588 8.24707H11.8412C13.9941 8.24707 15.7471 10 15.7471 12.153V14.9647C15.7471 17.1177 13.9941 18.8706 11.8412 18.8706H7.85882L6.21765 21.0588C5.77647 21.6471 5.07647 22 4.34118 22ZM3.55882 19.6588C3.55882 20.0882 3.91176 20.4412 4.34118 20.4412C4.58824 20.4412 4.81765 20.3294 4.96471 20.1294L6.84118 17.6294C6.98823 17.4353 7.21765 17.3177 7.46471 17.3177H11.8412C13.1353 17.3177 14.1824 16.2647 14.1824 14.9765V12.1647C14.1824 10.8706 13.1294 9.82354 11.8412 9.82354H5.90588C4.61176 9.82354 3.56471 10.8765 3.56471 12.1647V19.6647L3.55882 19.6588Z" fill="white"/>
<path d="M17.7826 15.1235L17.4708 14.7059C16.8532 13.8824 18.1002 12.9412 18.7179 13.7706L19.0296 14.1882C19.4767 14.7882 20.4355 14.4706 20.4355 13.7176V5.90588C20.4355 4.61176 19.3826 3.56471 18.0943 3.56471H11.8473C10.5532 3.56471 9.50611 4.61765 9.50611 5.90588C9.50611 6.33529 9.15905 6.68824 8.72376 6.68824C8.28846 6.68824 7.94141 6.34118 7.94141 5.90588C7.94141 3.75294 9.69435 2 11.8473 2H18.0943C20.2473 2 22.0002 3.75294 22.0002 5.90588V14.1C22.0002 14.2824 21.9414 14.4471 21.8355 14.5824C21.1591 16.2824 18.8767 16.5882 17.7826 15.1235Z" fill="white"/>
</g>
</g>
<defs>
<clipPath id="clip0_1_9899">
<rect width="24" height="24" fill="white"/>
</clipPath>
<clipPath id="clip1_1_9899">
<rect width="20" height="20" fill="white" transform="translate(2 2)"/>
</clipPath>
</defs>
</svg>
