<svg width="24" height="24" viewBox="0 0 24 24" fill="none" xmlns="http://www.w3.org/2000/svg">
<g clip-path="url(#clip0_1_9673)">
<g clip-path="url(#clip1_1_9673)">
<path d="M8.2 21.6133L7.06667 19.6667C7.06667 19.6667 7.05333 19.64 7.04667 19.6267C6.91333 19.36 6.64667 19.1933 6.34667 19.1933H4.34667C3.05333 19.1933 2 18.14 2 16.8467C2 16.4067 2.12 15.98 2.35333 15.6067C2.35333 15.6067 10.0133 3.10667 10.0133 3.1C10.4467 2.40667 11.1867 2 12 2C12.8133 2 13.56 2.41333 13.9867 3.1L21.6467 15.6067C21.88 15.98 22 16.4067 22 16.8467C22 18.14 20.9467 19.1933 19.6533 19.1933H11.4C11.1 19.1933 10.8333 19.36 10.7 19.6267C10.6933 19.64 9.54667 21.62 9.54667 21.62C9.40667 21.86 9.14667 22.0067 8.87333 22.0067C8.6 22.0067 8.34 21.86 8.2 21.62V21.6133ZM11.4067 17.6267H19.66C20.0933 17.6267 20.44 17.2733 20.44 16.8467C20.44 16.7 20.4 16.56 20.32 16.4333L12.66 3.93333C12.5133 3.70667 12.2667 3.56667 12 3.56667C11.7333 3.56667 11.48 3.70667 11.34 3.93333C11.34 3.93333 3.68667 16.4333 3.68 16.4333C3.6 16.5533 3.56 16.7 3.56 16.8467C3.56 17.28 3.91333 17.6267 4.34 17.6267H6.34C7.22667 17.6267 8.02 18.1133 8.42667 18.9L8.87333 19.6667L9.32 18.9C9.72667 18.1133 10.52 17.6267 11.4067 17.6267Z" fill="white"/>
<path d="M11.9988 12.9396C11.5654 12.9396 11.2188 12.5929 11.2188 12.1596V9.03293C11.2188 8.5996 11.5654 8.25293 11.9988 8.25293C12.4321 8.25293 12.7788 8.5996 12.7788 9.03293V12.1596C12.7788 12.5929 12.4321 12.9396 11.9988 12.9396Z" fill="white"/>
<path d="M12.7788 15.28C12.7788 15.7133 12.4321 16.06 11.9988 16.06C11.5654 16.06 11.2188 15.7133 11.2188 15.28C11.2188 14.8467 11.5654 14.5 11.9988 14.5C12.4321 14.5 12.7788 14.8467 12.7788 15.28Z" fill="white"/>
</g>
</g>
<defs>
<clipPath id="clip0_1_9673">
<rect width="24" height="24" fill="white"/>
</clipPath>
<clipPath id="clip1_1_9673">
<rect width="20" height="20" fill="white" transform="translate(2 2)"/>
</clipPath>
</defs>
</svg>
