<svg width="25" height="24" viewBox="0 0 25 24" fill="none" xmlns="http://www.w3.org/2000/svg">
<g clip-path="url(#clip0_867_800)">
<g clip-path="url(#clip1_867_800)">
<mask id="mask0_867_800" style="mask-type:luminance" maskUnits="userSpaceOnUse" x="2" y="2" width="21" height="20">
<path d="M22.5 2H2.5V22H22.5V2Z" fill="white"/>
</mask>
<g mask="url(#mask0_867_800)">
<path d="M3.18698 21.3131C2.74427 20.8703 2.5 20.2818 2.5 19.6558C2.5 19.0297 2.74375 18.4412 3.18646 17.9985L5.93646 15.2479C6.24167 14.9427 6.73646 14.9427 7.04115 15.2479C7.34583 15.5532 7.34583 16.0479 7.04115 16.3526L4.29062 19.1026C3.98646 19.4073 3.98646 19.9026 4.29062 20.2073C4.59635 20.5131 5.08958 20.5131 5.39531 20.2073L8.14583 17.4573C8.45104 17.1521 8.94583 17.1521 9.25052 17.4573C9.55573 17.7625 9.55573 18.2573 9.25052 18.562L6.50052 21.3125C5.58437 22.2287 4.1026 22.2287 3.18646 21.3125L3.18698 21.3131Z" fill="white"/>
</g>
<path d="M14.6875 17.6245C10.3797 17.6245 6.875 14.1198 6.875 9.81198C6.875 5.50417 10.3797 2 14.6875 2C18.9953 2 22.5 5.50469 22.5 9.8125C22.5 14.1203 18.9953 17.625 14.6875 17.625V17.6245ZM14.6875 3.5625C11.2411 3.5625 8.4375 6.36615 8.4375 9.8125C8.4375 13.2589 11.2411 16.0625 14.6875 16.0625C18.1339 16.0625 20.9375 13.2589 20.9375 9.8125C20.9375 6.36615 18.1339 3.5625 14.6875 3.5625Z" fill="white"/>
<path d="M18.5938 10.5938C18.1625 10.5938 17.8125 10.2443 17.8125 9.8125C17.8125 8.08958 16.4109 6.6875 14.6875 6.6875C14.2562 6.6875 13.9062 6.33802 13.9062 5.90625C13.9062 5.47448 14.2562 5.125 14.6875 5.125C17.2719 5.125 19.375 7.2276 19.375 9.8125C19.375 10.2443 19.0255 10.5938 18.5938 10.5938Z" fill="white"/>
</g>
</g>
<defs>
<clipPath id="clip0_867_800">
<rect width="24" height="24" fill="white" transform="translate(0.5)"/>
</clipPath>
<clipPath id="clip1_867_800">
<rect width="20" height="20" fill="white" transform="translate(2.5 2)"/>
</clipPath>
</defs>
</svg>
