<svg width="20" height="21" viewBox="0 0 20 21" fill="none" xmlns="http://www.w3.org/2000/svg">
<g clip-path="url(#clip0_844_16926)">
<mask id="mask0_844_16926" style="mask-type:luminance" maskUnits="userSpaceOnUse" x="0" y="0" width="20" height="21">
<path d="M20 0.5H0V20.5H20V0.5Z" fill="white"/>
</mask>
<g mask="url(#mask0_844_16926)">
<path d="M11.0228 10.2519C10.8178 10.2519 10.6237 10.1764 10.4726 10.0253C10.1706 9.72329 10.1706 9.22706 10.4726 8.92501L13.7844 5.61326C14.0864 5.31121 14.5827 5.31121 14.8847 5.61326C15.1868 5.91531 15.1868 6.41153 14.8847 6.71358L11.573 10.0253C11.4219 10.1764 11.217 10.2519 11.0228 10.2519Z" fill="#242426"/>
<path d="M11.0228 10.2519C10.8178 10.2519 10.6237 10.1764 10.4726 10.0253C10.1706 9.72329 10.1706 9.22706 10.4726 8.92501L13.7844 5.61326C14.0864 5.31121 14.5827 5.31121 14.8847 5.61326C15.1868 5.91531 15.1868 6.41153 14.8847 6.71358L11.573 10.0253C11.4219 10.1764 11.217 10.2519 11.0228 10.2519Z" fill="black" fill-opacity="0.2"/>
<path d="M17.0334 0.586289L4.88664 3.89805C3.16064 4.3727 2.57812 6.54098 3.85104 7.81391L7.71296 11.6758L6.05169 13.3371C5.74964 13.6391 5.74964 14.1354 6.05169 14.4374C6.35374 14.7395 6.84996 14.7395 7.15201 14.4374L8.81329 12.7761L12.6752 16.6381C13.9373 17.9002 16.1164 17.3285 16.5911 15.6025L19.9028 3.45576C20.3775 1.70819 18.7701 0.100852 17.0226 0.575502L17.0334 0.586289ZM18.4034 3.05662L15.0916 15.2033C14.9406 15.7751 14.2178 15.98 13.7863 15.5485L4.95137 6.71358C4.53065 6.29287 4.72483 5.55932 5.29657 5.4083L17.4433 2.09654C18.0258 1.93472 18.5652 2.4741 18.4034 3.05662Z" fill="#242426"/>
<path d="M17.0334 0.586289L4.88664 3.89805C3.16064 4.3727 2.57812 6.54098 3.85104 7.81391L7.71296 11.6758L6.05169 13.3371C5.74964 13.6391 5.74964 14.1354 6.05169 14.4374C6.35374 14.7395 6.84996 14.7395 7.15201 14.4374L8.81329 12.7761L12.6752 16.6381C13.9373 17.9002 16.1164 17.3285 16.5911 15.6025L19.9028 3.45576C20.3775 1.70819 18.7701 0.100852 17.0226 0.575502L17.0334 0.586289ZM18.4034 3.05662L15.0916 15.2033C14.9406 15.7751 14.2178 15.98 13.7863 15.5485L4.95137 6.71358C4.53065 6.29287 4.72483 5.55932 5.29657 5.4083L17.4433 2.09654C18.0258 1.93472 18.5652 2.4741 18.4034 3.05662Z" fill="black" fill-opacity="0.2"/>
<path d="M1.31638 19.1842C1.01433 18.8821 1.01433 18.3859 1.31638 18.0839L3.85144 15.5488C4.15349 15.2468 4.64971 15.2468 4.95176 15.5488C5.25381 15.8509 5.25381 16.3471 4.95176 16.6491L2.4167 19.1842C2.11466 19.4862 1.61843 19.4862 1.31638 19.1842Z" fill="#242426"/>
<path d="M1.31638 19.1842C1.01433 18.8821 1.01433 18.3859 1.31638 18.0839L3.85144 15.5488C4.15349 15.2468 4.64971 15.2468 4.95176 15.5488C5.25381 15.8509 5.25381 16.3471 4.95176 16.6491L2.4167 19.1842C2.11466 19.4862 1.61843 19.4862 1.31638 19.1842Z" fill="black" fill-opacity="0.2"/>
<path d="M4.62888 20.2623C4.32683 19.9603 4.32683 19.464 4.62888 19.162L7.16394 16.6269C7.46599 16.3249 7.96221 16.3249 8.26426 16.6269C8.56631 16.929 8.56631 17.4252 8.26426 17.7273L5.7292 20.2623C5.42715 20.5644 4.93093 20.5644 4.62888 20.2623Z" fill="#242426"/>
<path d="M4.62888 20.2623C4.32683 19.9603 4.32683 19.464 4.62888 19.162L7.16394 16.6269C7.46599 16.3249 7.96221 16.3249 8.26426 16.6269C8.56631 16.929 8.56631 17.4252 8.26426 17.7273L5.7292 20.2623C5.42715 20.5644 4.93093 20.5644 4.62888 20.2623Z" fill="black" fill-opacity="0.2"/>
<path d="M0.226537 15.8717C-0.0755124 15.5696 -0.0755124 15.0734 0.226537 14.7714L2.7616 12.2363C3.06365 11.9343 3.55987 11.9343 3.86192 12.2363C4.16397 12.5384 4.16397 13.0346 3.86192 13.3366L1.32686 15.8717C1.02481 16.1737 0.528587 16.1737 0.226537 15.8717Z" fill="#242426"/>
<path d="M0.226537 15.8717C-0.0755124 15.5696 -0.0755124 15.0734 0.226537 14.7714L2.7616 12.2363C3.06365 11.9343 3.55987 11.9343 3.86192 12.2363C4.16397 12.5384 4.16397 13.0346 3.86192 13.3366L1.32686 15.8717C1.02481 16.1737 0.528587 16.1737 0.226537 15.8717Z" fill="black" fill-opacity="0.2"/>
</g>
</g>
<defs>
<clipPath id="clip0_844_16926">
<rect width="20" height="20" fill="white" transform="translate(0 0.5)"/>
</clipPath>
</defs>
</svg>
