<svg width="24" height="24" viewBox="0 0 24 24" fill="none" xmlns="http://www.w3.org/2000/svg">
<g clip-path="url(#clip0_844_17272)">
<g clip-path="url(#clip1_844_17272)">
<path d="M2.78182 22.0005C2.68182 22.0005 2.58182 21.9823 2.48182 21.9368C2.19091 21.8187 2 21.5278 2 21.2187V8.71866C2 6.56412 3.75455 4.80957 5.90909 4.80957H11.7818C12.2091 4.80957 12.5636 5.15503 12.5636 5.59139C12.5636 6.02775 12.2182 6.37321 11.7818 6.37321H5.90909C4.61818 6.37321 3.56364 7.42775 3.56364 8.71866V19.3368L4.9 18.0005C5.34545 17.555 5.92727 17.3096 6.55455 17.3096H15.2818C16.5727 17.3096 17.6273 16.255 17.6273 14.9641V12.2187C17.6273 11.7914 17.9727 11.4368 18.4091 11.4368C18.8455 11.4368 19.1909 11.7823 19.1909 12.2187V14.9641C19.1909 17.1187 17.4364 18.8732 15.2818 18.8732H6.55455C6.34546 18.8732 6.14545 18.955 6 19.1005L3.33636 21.7641C3.19091 21.9096 2.99091 21.9914 2.78182 21.9914V22.0005Z" fill="white"/>
<path d="M12.2349 12.5454C11.8077 12.5454 11.4531 12.2 11.4531 11.7636C11.4531 10.1273 12.0895 8.59089 13.244 7.43635L17.9986 2.6818C18.9168 1.76362 20.3986 1.76362 21.3168 2.6818C22.2349 3.59998 22.2349 5.0818 21.3168 5.99998L16.5622 10.7545C15.4077 11.9091 13.8713 12.5454 12.2349 12.5454ZM19.6531 3.56362C19.4531 3.56362 19.2531 3.63635 19.0986 3.79089L14.344 8.54544C13.6895 9.19998 13.2622 10.0182 13.0895 10.9C13.9804 10.7273 14.7895 10.3 15.444 9.64544L20.1986 4.89089C20.5077 4.5818 20.5077 4.09089 20.1986 3.7818C20.044 3.62725 19.844 3.55453 19.644 3.55453L19.6531 3.56362Z" fill="white"/>
</g>
</g>
<defs>
<clipPath id="clip0_844_17272">
<rect width="24" height="24" fill="white"/>
</clipPath>
<clipPath id="clip1_844_17272">
<rect width="20" height="20" fill="white" transform="translate(2 2)"/>
</clipPath>
</defs>
</svg>
