<svg width="21" height="19" viewBox="0 0 21 19" fill="none" xmlns="http://www.w3.org/2000/svg">
<g clip-path="url(#clip0_1_16068)">
<path d="M10.0651 0.3125C4.50568 0.3125 0 3.85103 0 8.21855C0 11.0601 1.90981 13.5517 4.77453 14.9456C4.56439 15.7255 4.01277 17.7749 3.90152 18.2124C3.76555 18.7559 4.10084 18.7497 4.32335 18.6039C4.4964 18.4887 7.08145 16.7417 8.19705 15.988C8.80275 16.077 9.427 16.1246 10.0651 16.1246C15.6246 16.1246 20.1303 12.5861 20.1303 8.21855C20.1303 3.85103 15.6246 0.3125 10.0651 0.3125Z" fill="#242426"/>
<path d="M10.0651 0.3125C4.50568 0.3125 0 3.85103 0 8.21855C0 11.0601 1.90981 13.5517 4.77453 14.9456C4.56439 15.7255 4.01277 17.7749 3.90152 18.2124C3.76555 18.7559 4.10084 18.7497 4.32335 18.6039C4.4964 18.4887 7.08145 16.7417 8.19705 15.988C8.80275 16.077 9.427 16.1246 10.0651 16.1246C15.6246 16.1246 20.1303 12.5861 20.1303 8.21855C20.1303 3.85103 15.6246 0.3125 10.0651 0.3125Z" fill="black" fill-opacity="0.2"/>
<path d="M3.04388 6.76291H4.07914C4.07914 6.76291 4.08532 9.59067 4.07914 10.2493C4.07914 10.7298 5.15766 10.7359 5.15611 10.2569L5.16075 6.80129C5.16075 6.80129 5.50841 6.80436 6.19137 6.80436C6.8357 6.80436 6.8357 5.79884 6.19137 5.7973C5.46514 5.7973 3.04079 5.77734 3.04079 5.77734C2.43355 5.77734 2.43509 6.76445 3.04079 6.76445" fill="#FAE100"/>
<mask id="mask0_1_16068" style="mask-type:luminance" maskUnits="userSpaceOnUse" x="2" y="5" width="5" height="6">
<path d="M3.04388 6.76291H4.07914C4.07914 6.76291 4.08532 9.59067 4.07914 10.2493C4.07914 10.7298 5.15766 10.7359 5.15611 10.2569L5.16075 6.80129C5.16075 6.80129 5.50841 6.80436 6.19137 6.80436C6.8357 6.80436 6.8357 5.79884 6.19137 5.7973C5.46514 5.7973 3.04079 5.77734 3.04079 5.77734C2.43355 5.77734 2.43509 6.76445 3.04079 6.76445" fill="white"/>
</mask>
<g mask="url(#mask0_1_16068)">
<path d="M6.83574 5.77539H2.43359V10.7355H6.83574V5.77539Z" fill="#FAE100"/>
</g>
<path d="M8.00051 6.94671L8.57685 8.7413H7.37472L8.00051 6.94671ZM7.35463 6.10544C7.09968 6.6627 6.17877 9.29703 5.87283 9.99552C5.65187 10.5006 6.60523 10.912 6.82619 10.4069L7.03324 9.68696H8.92915C8.92915 9.68696 8.86425 9.71613 9.11611 10.3762C9.32007 10.9105 10.3043 10.5405 10.1004 10.0063C9.80989 9.2433 8.80244 6.49384 8.61857 6.10544C8.53359 5.92583 8.23074 5.79688 7.93716 5.79688C7.69302 5.79688 7.45661 5.88438 7.35618 6.10544" fill="#FAE100"/>
<mask id="mask1_1_16068" style="mask-type:luminance" maskUnits="userSpaceOnUse" x="5" y="5" width="6" height="6">
<path d="M8.00051 6.94671L8.57685 8.7413H7.37472L8.00051 6.94671ZM7.35463 6.10544C7.09968 6.6627 6.17877 9.29703 5.87283 9.99552C5.65187 10.5006 6.60523 10.912 6.82619 10.4069L7.03324 9.68696H8.92915C8.92915 9.68696 8.86425 9.71613 9.11611 10.3762C9.32007 10.9105 10.3043 10.5405 10.1004 10.0063C9.80989 9.2433 8.80244 6.49384 8.61857 6.10544C8.53359 5.92583 8.23074 5.79688 7.93716 5.79688C7.69302 5.79688 7.45661 5.88438 7.35618 6.10544" fill="white"/>
</mask>
<g mask="url(#mask1_1_16068)">
<path d="M10.3048 5.79688H5.65234V10.9135H10.3048V5.79688Z" fill="#FAE100"/>
</g>
<path d="M10.4625 6.27054C10.464 7.16553 10.4671 10.0516 10.4671 10.0516C10.4671 10.0516 10.3837 10.6258 10.8781 10.6258C11.3726 10.6258 12.4712 10.6212 12.9579 10.6212C13.4446 10.6212 13.4416 9.59261 12.9548 9.59261C12.4681 9.59261 11.5796 9.58801 11.5796 9.58801C11.5796 9.58801 11.5843 6.91991 11.5827 6.27054C11.5827 5.95737 11.3015 5.80078 11.0218 5.80078C10.7422 5.80078 10.4594 5.9589 10.4609 6.27361" fill="#FAE100"/>
<mask id="mask2_1_16068" style="mask-type:luminance" maskUnits="userSpaceOnUse" x="10" y="5" width="4" height="6">
<path d="M10.4625 6.27054C10.464 7.16553 10.4671 10.0516 10.4671 10.0516C10.4671 10.0516 10.3837 10.6258 10.8781 10.6258C11.3726 10.6258 12.4712 10.6212 12.9579 10.6212C13.4446 10.6212 13.4416 9.59261 12.9548 9.59261C12.4681 9.59261 11.5796 9.58801 11.5796 9.58801C11.5796 9.58801 11.5843 6.91991 11.5827 6.27054C11.5827 5.95737 11.3015 5.80078 11.0218 5.80078C10.7422 5.80078 10.4594 5.9589 10.4609 6.27361" fill="white"/>
</mask>
<g mask="url(#mask2_1_16068)">
<path d="M13.4477 5.79688H10.3867V10.6234H13.4477V5.79688Z" fill="#FAE100"/>
</g>
<path d="M13.5788 6.12735C13.5896 6.52035 13.5664 10.0696 13.5664 10.3321C13.5664 10.7466 14.631 10.7466 14.6295 10.3321C14.6295 9.8501 14.6295 8.93515 14.6295 8.93515L14.9416 8.68645L16.3075 10.5379C16.5841 10.9001 17.4525 10.2462 17.1774 9.88388L15.7265 7.98642C15.7265 7.98642 16.7108 6.9287 17.0986 6.54491C17.3258 6.32232 16.6243 5.61921 16.3971 5.84335C16.1777 6.0598 14.6357 7.59342 14.6357 7.59342C14.6357 7.59342 14.6496 6.63088 14.6357 6.09818C14.631 5.89554 14.3807 5.79883 14.1258 5.79883C13.8523 5.79883 13.5726 5.91089 13.5788 6.12735Z" fill="#FAE100"/>
<mask id="mask3_1_16068" style="mask-type:luminance" maskUnits="userSpaceOnUse" x="13" y="5" width="5" height="6">
<path d="M13.5788 6.12735C13.5896 6.52035 13.5664 10.0696 13.5664 10.3321C13.5664 10.7466 14.631 10.7466 14.6295 10.3321C14.6295 9.8501 14.6295 8.93515 14.6295 8.93515L14.9416 8.68645L16.3075 10.5379C16.5841 10.9001 17.4525 10.2462 17.1774 9.88388L15.7265 7.98642C15.7265 7.98642 16.7108 6.9287 17.0986 6.54491C17.3258 6.32232 16.6243 5.61921 16.3971 5.84335C16.1777 6.0598 14.6357 7.59342 14.6357 7.59342C14.6357 7.59342 14.6496 6.63088 14.6357 6.09818C14.631 5.89554 14.3807 5.79883 14.1258 5.79883C13.8523 5.79883 13.5726 5.91089 13.5788 6.12735Z" fill="white"/>
</mask>
<g mask="url(#mask3_1_16068)">
<path d="M17.454 5.62109H13.5664V10.9005H17.454V5.62109Z" fill="#FAE100"/>
</g>
</g>
<defs>
<clipPath id="clip0_1_16068">
<rect width="20.1303" height="18.3743" fill="white" transform="translate(0 0.3125)"/>
</clipPath>
</defs>
</svg>
