<svg width="24" height="24" viewBox="0 0 24 24" fill="none" xmlns="http://www.w3.org/2000/svg">
<g clip-path="url(#clip0_1_3166)">
<g clip-path="url(#clip1_1_3166)">
<mask id="mask0_1_3166" style="mask-type:luminance" maskUnits="userSpaceOnUse" x="5" y="2" width="14" height="20">
<path d="M19 2H5V22H19V2Z" fill="white"/>
</mask>
<g mask="url(#mask0_1_3166)">
<path d="M13.8496 14.5719L12.0016 13.5958L10.1536 14.5719C9.43597 14.951 8.59441 14.337 8.7313 13.5344L9.08441 11.4672L7.589 10.0031C7.00878 9.43489 7.32974 8.44114 8.13241 8.32395L10.1987 8.02239L11.1227 6.14166C11.4815 5.41145 12.5212 5.41093 12.88 6.14166L13.804 8.02239L15.8703 8.32395C16.6724 8.44114 16.9944 9.43437 16.4131 10.0031L14.9183 11.4672L15.2714 13.5344C15.4088 14.3401 14.5646 14.9495 13.8491 14.5719H13.8496Z" fill="#FF0089"/>
<path d="M15.1111 21.4031L12.518 19.0734C12.2235 18.8089 11.7765 18.8083 11.482 19.0734L8.88889 21.4031C8.46059 21.788 7.90837 21.9995 7.33333 21.9995C6.04689 21.9995 5 20.9479 5 19.6557V5.90625C5 3.75208 6.74481 2 8.88889 2H15.1111C17.2557 2 19 3.75208 19 5.90625V19.6562C19 21.6734 16.607 22.7469 15.1111 21.4036V21.4031ZM13.555 17.9089L16.1487 20.2385C16.6454 20.6849 17.4444 20.3307 17.4444 19.6557V5.90625C17.4444 4.61406 16.3976 3.5625 15.1111 3.5625H8.88889C7.60244 3.5625 6.55556 4.61406 6.55556 5.90625V19.6562C6.55556 20.087 6.90452 20.4375 7.33333 20.4375C7.85237 20.4375 7.83941 20.1651 10.445 17.9089C11.329 17.1141 12.6694 17.113 13.555 17.9089Z" fill="#FF0089"/>
</g>
</g>
</g>
<defs>
<clipPath id="clip0_1_3166">
<rect width="24" height="24" fill="white"/>
</clipPath>
<clipPath id="clip1_1_3166">
<rect width="14" height="20" fill="white" transform="translate(5 2)"/>
</clipPath>
</defs>
</svg>
